<?xml version="1.0" standalone="no"?>
<!DOCTYPE svg PUBLIC "-//W3C//DTD SVG 20010904//EN"
 "http://www.w3.org/TR/2001/REC-SVG-20010904/DTD/svg10.dtd">
<svg version="1.0" xmlns="http://www.w3.org/2000/svg"
 width="460.000000pt" height="460.000000pt" viewBox="0 0 460.000000 460.000000"
 preserveAspectRatio="xMidYMid meet">
<metadata>
Created by potrace 1.14, written by Peter Selinger 2001-2017
</metadata>
<g transform="translate(0.000000,460.000000) scale(0.100000,-0.100000)"
fill="#000000" stroke="none">
<path d="M2043 4500 c-39 -89 -67 -145 -79 -157 -18 -18 -54 -16 -54 2 0 9
-11 27 -25 41 -14 14 -25 29 -25 34 0 6 -11 10 -24 10 -16 0 -27 7 -31 20 -5
16 -15 20 -51 20 -41 0 -58 -8 -99 -47 -8 -7 -18 -13 -24 -13 -6 0 -11 -4 -11
-8 0 -14 -36 -52 -49 -52 -6 0 -11 -4 -11 -10 0 -5 -5 -10 -11 -10 -13 0 -49
-38 -49 -52 0 -4 -9 -8 -19 -8 -12 0 -23 -9 -27 -22 -9 -31 -41 -60 -61 -56
-9 2 -21 20 -27 40 -6 21 -21 45 -34 54 -22 15 -24 15 -37 -2 -8 -11 -32 -57
-55 -104 -22 -47 -63 -128 -89 -180 -27 -52 -54 -112 -59 -132 l-10 -38 44 0
c37 0 44 -3 44 -20 0 -11 -4 -20 -10 -20 -5 0 -16 -13 -25 -29 -14 -27 -39
-60 -80 -102 -41 -43 -129 -92 -198 -110 -58 -16 -74 -24 -70 -36 4 -11 15
-13 47 -8 22 4 45 11 51 16 5 5 22 9 37 9 16 0 40 7 53 16 14 9 25 13 25 8 0
-5 7 2 16 14 21 30 44 28 44 -4 0 -17 -12 -37 -37 -60 -21 -18 -41 -34 -44
-34 -4 0 -9 -8 -12 -18 -2 -11 -17 -21 -35 -25 -24 -5 -29 -10 -25 -26 3 -12
-6 -34 -24 -57 -15 -21 -27 -39 -26 -41 1 -1 -9 -27 -22 -56 -19 -45 -22 -64
-18 -115 5 -56 15 -78 25 -53 4 11 78 61 89 61 15 0 10 -34 -11 -68 -11 -18
-20 -44 -20 -57 0 -17 -6 -25 -18 -25 -32 0 -59 -160 -42 -245 4 -22 8 -35 9
-28 0 6 7 18 13 25 15 16 63 110 78 151 8 23 15 28 38 25 36 -4 39 -31 9 -90
-13 -26 -20 -49 -15 -50 4 -2 10 -25 12 -53 2 -27 8 -63 15 -78 6 -16 11 -34
11 -41 0 -31 15 -23 30 16 10 29 22 44 36 46 20 3 20 0 13 -55 -8 -58 -3 -86
8 -45 3 12 12 22 21 22 15 0 14 -28 -4 -132 -5 -30 -3 -38 8 -38 8 0 30 -24
49 -52 29 -45 34 -50 37 -30 2 12 10 22 18 22 12 0 15 -4 14 -25 0 -3 8 -15
19 -27 25 -26 51 -97 61 -163 4 -27 21 -88 39 -134 17 -46 31 -91 31 -100 0
-14 -21 -19 -126 -30 -206 -21 -274 -73 -334 -251 -19 -55 -23 -97 -29 -270
-5 -162 -10 -210 -23 -230 -13 -20 -17 -63 -21 -205 -2 -99 -9 -191 -15 -205
-5 -14 -12 -72 -16 -130 -3 -58 -10 -119 -15 -136 -5 -17 -9 -48 -10 -70 -3
-58 -6 -83 -14 -90 -4 -4 -7 -72 -7 -151 l0 -143 1429 0 1428 0 7 37 c3 21 6
50 6 64 0 14 6 39 14 55 45 94 48 105 41 141 -12 67 -14 235 -5 343 6 58 12
128 15 155 7 86 33 289 39 317 4 16 3 28 -2 28 -5 0 -7 59 -4 131 3 90 1 133
-6 138 -7 4 -13 40 -16 81 -4 70 -18 128 -34 140 -4 3 -13 16 -20 30 -15 32
-78 117 -106 144 -51 50 -120 73 -241 79 l-50 2 -6 55 c-9 83 -10 85 -126 146
-70 37 -102 66 -102 96 -1 15 3 29 8 32 8 5 25 64 22 79 0 4 5 7 13 7 9 0 13
15 13 53 0 29 7 67 17 84 9 18 16 39 16 48 0 8 4 15 9 15 5 0 15 16 22 35 15
40 18 41 62 18 44 -24 98 -43 121 -43 17 0 16 4 -11 33 -35 36 -65 91 -56 101
4 3 1 6 -5 6 -7 0 -12 7 -12 15 0 17 38 20 88 6 32 -10 37 -6 33 27 -2 14 1
15 32 3 37 -14 53 33 56 163 2 91 -1 118 -20 172 -12 35 -19 67 -16 71 4 3 31
-3 60 -15 151 -61 261 -87 352 -80 l50 3 -55 18 c-60 19 -97 34 -120 48 -8 5
-23 12 -32 15 -34 12 -19 32 28 39 55 8 51 18 -6 17 -33 -1 -40 3 -40 19 0 10
-7 19 -14 19 -21 0 -146 122 -146 143 0 11 -8 17 -24 17 -19 0 -27 9 -40 41
-9 23 -14 49 -11 59 4 13 -2 21 -27 29 -62 22 -88 36 -88 48 0 7 8 13 18 13
12 0 9 4 -9 14 -39 20 -71 55 -67 74 3 15 23 18 138 23 74 4 145 7 157 8 14 1
23 9 25 23 4 29 37 36 55 12 12 -16 13 -16 11 8 -2 21 -10 29 -41 39 -23 8
-36 17 -33 25 3 7 0 14 -5 16 -5 2 -11 13 -12 26 0 12 -5 22 -9 22 -4 0 -8 5
-8 11 0 22 -55 81 -89 95 -39 17 -136 42 -190 50 -18 2 -41 9 -50 14 -10 5
-32 7 -49 4 -19 -3 -32 -1 -32 5 0 6 -3 10 -7 9 -17 -3 -61 21 -67 37 -10 26
3 37 35 30 16 -4 38 -4 49 0 18 6 20 13 16 68 -8 112 -25 150 -91 207 -16 14
-47 42 -68 63 -22 20 -44 37 -51 37 -17 -1 -47 -26 -39 -33 3 -4 -4 -7 -17 -7
-13 0 -21 3 -17 6 3 3 -4 16 -15 29 -44 51 -88 -17 -88 -135 0 -56 -3 -70 -15
-70 -8 0 -15 5 -15 10 0 6 -6 10 -14 10 -8 0 -24 12 -35 26 -12 15 -21 23 -21
18 0 -5 -5 -1 -11 9 -5 9 -14 17 -20 17 -5 0 -19 9 -31 20 -12 10 -24 17 -28
15 -4 -3 -14 2 -21 11 -13 16 -66 46 -73 42 -2 -2 -13 5 -24 15 -11 10 -26 20
-34 21 -7 2 -20 5 -28 8 -27 9 -114 35 -155 47 -22 6 -73 12 -114 14 l-73 3
-15 -36z m1331 -565 c20 -14 39 -25 42 -25 19 0 84 -54 84 -70 0 -43 -50 -37
-131 17 -33 22 -71 38 -97 41 -44 5 -59 19 -48 47 10 26 106 20 150 -10z m-61
-89 c12 -8 54 -24 92 -36 109 -33 117 -37 113 -63 -4 -32 -41 -33 -129 -3
-165 55 -214 88 -181 120 10 11 79 -2 105 -18z m-2235 -399 c2 -10 -15 -40
-41 -71 -30 -35 -47 -64 -49 -86 -2 -26 -9 -35 -31 -43 -42 -14 -57 -3 -57 41
0 41 26 82 96 150 37 36 76 41 82 9z m2327 -477 c7 -25 20 -72 29 -105 9 -33
16 -75 14 -95 -3 -30 -7 -35 -28 -35 -21 0 -26 6 -32 40 -3 22 -16 69 -27 104
-21 64 -27 122 -14 135 20 19 46 -1 58 -44z"/>
<path d="M1071 2524 c0 -11 3 -14 6 -6 3 7 2 16 -1 19 -3 4 -6 -2 -5 -13z"/>
<path d="M1112 2380 c0 -14 2 -19 5 -12 2 6 2 18 0 25 -3 6 -5 1 -5 -13z"/>
</g>
</svg>
